<svg width="162" height="199" viewBox="0 0 162 199" fill="none" xmlns="http://www.w3.org/2000/svg">
<g filter="url(#filter0_d_250_399)">
<rect width="47.351" height="47.351" rx="23.6755" fill="#5B7FFF"/>
</g>
<path d="M16.0536 27.3717C16.1176 27.3662 16.1045 27.3082 16.0404 27.311C15.9765 27.3138 15.9676 27.3752 16.0314 27.373C16.0389 27.3728 16.0464 27.3723 16.0536 27.3717Z" fill="white"/>
<path d="M14.0453 12.0644C10.6504 12.7878 11.0653 19.0638 10.9348 24.9525C10.9301 25.1652 10.9526 25.3774 11.0028 25.5841L11.2746 26.7026C11.3889 27.173 11.82 27.4968 12.3036 27.4755L12.5893 27.4629C13.5226 27.4218 15.3076 25.1481 15.3882 24.2173C15.5528 22.3129 15.6137 20.966 15.633 20.0858C15.6521 19.2077 15.8131 18.3314 16.169 17.5285L17.1564 15.3007C18.2917 12.7391 16.7858 11.481 14.0453 12.0644Z" fill="white"/>
<path d="M15.0997 24.5321C15.0903 24.6847 15.2306 24.8031 15.3794 24.7682C15.4837 24.7437 15.5569 24.6498 15.5552 24.5427L15.4627 18.6773L15.0997 24.5321Z" fill="#E6E6E7"/>
<path d="M18.3112 37.0292C17.6219 37.0493 17.0722 37.6115 17.0677 38.3012C17.063 39.0118 17.6379 39.5904 18.3485 39.5904H22.1924C22.914 39.5904 23.5054 39.0178 23.5286 38.2965C23.5534 37.5264 22.9237 36.8947 22.1534 36.9172L18.3112 37.0292Z" fill="#343444"/>
<path d="M25.6604 37.1038C24.9439 37.0829 24.3581 37.6703 24.3812 38.3867C24.4027 39.0577 24.9528 39.5904 25.6241 39.5904H29.6601C30.3173 39.5904 30.8489 39.0554 30.8446 38.3982C30.8405 37.7604 30.3322 37.2403 29.6947 37.2217L25.6604 37.1038Z" fill="#343444"/>
<path d="M32.1318 27.3733C32.1769 27.3696 32.147 27.3071 32.1018 27.3047C32.0679 27.3028 32.0536 27.3258 32.0783 27.3491C32.0935 27.3634 32.1121 27.375 32.1318 27.3733Z" fill="#F0F1F1"/>
<path d="M33.3058 12.0644C31.2749 11.632 29.3535 13.4021 30.1949 15.3004L31.4715 18.1804C31.6386 18.5575 31.7368 18.9603 31.7658 19.3717C31.8205 20.1488 31.9365 21.6934 32.1548 24.2173C32.1782 24.4869 32.1978 24.7339 32.214 24.9603C32.2949 26.088 33.4236 27.377 34.5525 27.4391C35.322 27.4815 36.0122 26.9689 36.194 26.22L36.3492 25.5811C36.3989 25.3763 36.4212 25.1662 36.4165 24.9556C36.2854 19.066 36.701 12.7879 33.3058 12.0644Z" fill="#F0F1F1"/>
<path d="M21.698 10.9057C21.25 10.9648 20.8101 11.0744 20.3867 11.2322L19.172 11.6851C16.8252 12.56 15.2688 14.8006 15.268 17.3052L15.2647 27.7697C15.2636 31.0833 17.9489 33.7704 21.2625 33.7716L26.0666 33.7733C29.3802 33.7745 32.0675 31.0892 32.0687 27.7755L32.0728 16.7499C32.0737 14.5319 30.8508 12.4944 28.8932 11.4518L28.3407 11.1576C27.2365 10.5695 25.976 10.3413 24.7356 10.505L21.698 10.9057Z" fill="#1A3EA3"/>
<path d="M23.7501 13.5057C23.3795 13.5056 23.0719 13.7919 23.0453 14.1615L22.2474 25.2792C22.2242 25.6022 22.2982 25.9248 22.4598 26.2054L22.5102 26.293C23.0994 27.3158 24.5664 27.3411 25.1904 26.3391C25.369 26.0524 25.4498 25.7156 25.4208 25.3791L24.4536 14.1514C24.4222 13.7863 24.1167 13.5058 23.7501 13.5057Z" fill="#36A9E1"/>
<path d="M24.3155 10.8727C23.9336 10.7282 23.5184 10.6933 23.1174 10.77C22.7321 10.8437 22.2756 10.9955 22.1046 11.3077C21.6602 12.1186 22.1731 12.8562 22.6101 13.2888C22.9012 13.577 23.3104 13.6886 23.7201 13.6886C24.1604 13.6886 24.6 13.5598 24.9005 13.2378C25.2551 12.8579 25.6291 12.2881 25.3999 11.7293C25.2221 11.2964 24.7227 11.0267 24.3155 10.8727Z" fill="#2F92C2"/>
<path d="M19.4092 9.73992C19.3585 10.0529 19.4352 10.3732 19.6221 10.6293L20.3784 11.6655C20.8898 12.366 21.9033 12.4507 22.5238 11.8446C23.1773 11.2062 23.0692 10.1262 22.3021 9.63008L21.2249 8.93342C20.506 8.46843 19.5462 8.89474 19.4092 9.73992Z" fill="#2E53B8"/>
<path d="M25.1424 9.63623C24.3793 10.1288 24.271 11.2025 24.9204 11.8375C25.542 12.4455 26.5597 12.3545 27.0636 11.6459L27.686 10.7709C27.8495 10.541 27.9275 10.2611 27.9064 9.97974C27.838 9.06471 26.8154 8.55623 26.0445 9.05389L25.1424 9.63623Z" fill="#2E53B8"/>
<path d="M20.5213 13.0625C20.0892 11.4778 18.3447 10.6527 16.8456 11.324C16.0247 11.6915 15.4433 12.4468 15.298 13.3344L14.7822 16.4866C14.7366 16.7647 14.7109 17.0392 14.705 17.321C14.6642 19.2547 14.4912 27.5625 14.3771 34.6918C14.334 37.3885 16.5108 39.5907 19.2078 39.5907C21.8423 39.5907 23.9933 37.4844 24.0486 34.8505L24.2031 27.4979C24.2152 26.9226 24.1444 26.3485 23.993 25.7933L20.5213 13.0625Z" fill="white"/>
<path d="M18.6131 9.90331C18.5146 9.99623 18.445 10.1157 18.4128 10.2472L17.6884 13.2042C17.4944 13.9957 17.7341 14.8308 18.3182 15.3991L18.5531 15.6277C18.9182 15.9829 19.097 16.488 19.0366 16.9938L19.0237 17.1018C18.9903 17.3823 19.0485 17.6662 19.1897 17.9109C19.9557 19.2384 21.9872 18.3935 21.586 16.9143L19.7732 10.2305C19.6342 9.71819 18.9992 9.5391 18.6131 9.90331Z" fill="#F0F1F1"/>
<path d="M16.1455 33.224C16.1455 33.3589 16.2549 33.4683 16.3898 33.4684L19.6372 33.4692C19.7721 33.4692 19.8814 33.36 19.8814 33.2252C19.8814 33.0904 19.7722 32.9812 19.6374 32.9811L16.39 32.9796C16.255 32.9796 16.1455 33.089 16.1455 33.224Z" fill="#D0D2D3"/>
<path d="M32.1151 13.3402C31.9705 12.452 31.3892 11.6959 30.568 11.3278C29.0692 10.656 27.3244 11.4801 26.8913 13.0645L23.3955 25.8517C23.2543 26.3683 23.1828 26.9015 23.1831 27.4371L23.187 34.6684C23.1885 37.3872 25.3929 39.5904 28.1117 39.5904C30.854 39.5904 33.0676 37.3516 33.0247 34.6097C32.9135 27.4985 32.7448 19.2487 32.7049 17.3253C32.6991 17.0446 32.6736 16.7709 32.6285 16.4937L32.1151 13.3402Z" fill="#F0F1F1"/>
<path d="M29.0021 10.2512C28.97 10.1197 28.9006 10.0003 28.8023 9.90736C28.4165 9.54281 27.7814 9.72135 27.6421 10.2335L25.7829 17.0697C25.3284 18.7408 27.584 19.7399 28.5162 18.2805L28.6333 18.0972C28.8544 17.751 28.8721 17.3125 28.6794 16.9496C28.4418 16.502 28.5283 15.9513 28.8917 15.5982L29.2759 15.2248C29.7469 14.7672 29.9405 14.0944 29.7847 13.4564L29.0021 10.2512Z" fill="white"/>
<path d="M24.2559 28.4011C24.0517 28.4008 23.8868 28.5648 23.8861 28.7669C23.8859 28.9696 24.0521 29.1333 24.2552 29.1333C24.4585 29.1333 24.6246 28.9698 24.6244 28.7677C24.6246 28.5655 24.4593 28.4008 24.2559 28.4011Z" fill="#D0D2D3"/>
<path d="M24.2545 32.2471C24.0511 32.2454 23.8853 32.4111 23.8851 32.613C23.8851 32.8151 24.0507 32.9791 24.2545 32.9796C24.4575 32.9793 24.6236 32.8154 24.6238 32.613C24.6243 32.4101 24.4585 32.2466 24.2545 32.2471Z" fill="#D0D2D3"/>
<path d="M24.2787 36.333C24.0746 36.3328 23.9093 36.497 23.9081 36.6989C23.9081 36.902 24.0754 37.0652 24.2775 37.0652C24.481 37.0652 24.6473 36.902 24.6466 36.6996C24.6473 36.4972 24.482 36.3325 24.2787 36.333Z" fill="#D0D2D3"/>
<path d="M27.4089 33.228C27.4089 33.3628 27.5181 33.472 27.6529 33.4721L30.8998 33.4738C31.035 33.4738 31.1446 33.3643 31.1447 33.2292C31.1449 33.0939 31.0352 32.9841 30.8999 32.9841L27.653 32.9839C27.5182 32.9839 27.4089 33.0932 27.4089 33.228Z" fill="#D0D2D3"/>
<path d="M19.4611 26.3313C19.41 26.6616 19.6298 26.973 19.9582 27.0354L32.1781 29.356C32.5237 29.4216 32.8437 29.1566 32.8437 28.8049C32.8437 28.5375 32.6549 28.3072 32.3926 28.2548L20.1954 25.818C19.8491 25.7488 19.5151 25.9823 19.4611 26.3313Z" fill="#D0D2D3"/>
<path d="M25.9852 23.1891C25.5675 23.1264 25.2005 23.4696 25.2351 23.8905C25.2605 24.1984 25.4976 24.4468 25.804 24.4863L31.3152 25.1977C31.6788 25.2446 31.9984 24.9558 31.9885 24.5893C31.9807 24.3001 31.7665 24.058 31.4804 24.015L25.9852 23.1891Z" fill="#D0D2D3"/>
<path d="M31.6046 24.5424C31.6029 24.6497 31.6762 24.7437 31.7807 24.7682C31.9296 24.8031 32.07 24.6846 32.0605 24.5319L31.6976 18.6773L31.6046 24.5424Z" fill="#D0D2D3"/>
<path d="M17.1549 21.8277C17.0846 21.9833 16.8211 22.4361 16.6527 22.4079C16.2343 22.3377 15.7841 22.2941 15.5348 22.3686C14.9839 22.5325 14.6765 23.21 14.6008 23.6872C14.5255 24.1645 15.0086 25.0472 15.8495 25.3446C16.6918 25.6425 19.2583 26.0115 19.5016 25.7162C19.6817 25.4987 19.9539 24.1628 20.0836 23.4803C20.13 23.2367 20.0246 22.9908 19.8185 22.8528L18.9693 22.284C18.7102 22.1105 17.2838 21.5437 17.1549 21.8277Z" fill="#FFBA7F"/>
<path d="M33.2843 24.8839C33.0051 24.9073 32.724 24.8918 32.4491 24.8379L22.0766 22.8041C20.9575 22.5847 19.8762 23.3266 19.6782 24.4498C19.4852 25.5448 20.2034 26.5918 21.2953 26.8018C24.7844 27.473 31.8881 28.8321 33.9394 29.1678C35.0831 29.3549 35.6907 28.6028 36.0104 27.6596C36.5517 26.0621 34.9651 24.7428 33.2843 24.8839Z" fill="#F0F1F1"/>
<path d="M14.9579 28.2548C14.6956 28.3072 14.5068 28.5375 14.5068 28.8049C14.5068 29.1566 14.8268 29.4216 15.1724 29.356L27.3926 27.0354C27.7212 26.973 27.9411 26.6614 27.8897 26.3309C27.8356 25.9821 27.5016 25.7488 27.1554 25.8179L14.9579 28.2548Z" fill="#D0D2D3"/>
<path d="M28.8481 22.5049C27.3954 22.4083 26.5385 23.8892 27.0104 25.2665C27.0541 25.3939 27.0958 25.4884 27.1334 25.534C27.377 25.8288 28.503 24.6283 29.3448 24.3303C30.1864 24.0336 31.0024 24.1517 31.5206 24.09C32.0045 24.0324 30.2203 22.5957 28.8481 22.5049Z" fill="#FFBA7F"/>
<path d="M14.7775 24.4827C14.5847 24.5205 14.389 24.542 14.1925 24.547C12.3886 24.5927 10.7543 26.0759 11.3793 27.7687C11.7083 28.6599 12.3124 29.3477 13.412 29.1679C15.4351 28.8368 22.3725 27.5103 25.91 26.83C27.089 26.6032 27.8691 25.4814 27.6782 24.2961C27.4783 23.0548 26.2895 22.2261 25.0557 22.4679L14.7775 24.4827Z" fill="white"/>
<path d="M17.3859 25.7563C16.9239 25.8255 16.3446 25.8075 16.1444 25.6207C16.0128 25.5261 15.8671 25.131 15.8017 24.5896C15.6617 23.5612 15.6985 22.0268 15.6895 20.768C15.6887 20.6627 15.6023 20.5785 15.4969 20.5796C15.3915 20.5808 15.307 20.6671 15.3078 20.7725C15.3169 22.0233 15.2776 23.5615 15.4222 24.6398C15.5062 25.2102 15.6107 25.657 15.8971 25.9112C16.3093 26.2365 16.9381 26.1909 17.4363 26.1328C17.5889 26.1123 17.7291 26.0873 17.8447 26.0639C18.0282 26.0268 18.1258 25.8548 18.0754 25.6744C18.0664 25.6418 18.0453 25.6296 18.0124 25.6378C17.9127 25.6625 17.672 25.7187 17.3859 25.7563Z" fill="#BBBDBF"/>
<path d="M17.8153 25.4822C17.557 25.5372 17.3784 25.7189 17.4142 25.8898C17.451 26.06 17.689 26.1546 17.948 26.1008C18.2055 26.0456 18.3851 25.8634 18.3488 25.693C18.3122 25.5223 18.0736 25.4277 17.8153 25.4822Z" fill="#57585A"/>
<path d="M21.2215 19.9866C21.1944 19.885 21.0904 19.8241 20.9885 19.8505C20.8862 19.877 20.8248 19.9814 20.8521 20.0836C21.1775 21.3001 21.6186 22.7706 21.7574 23.7986C21.8363 24.3376 21.8017 24.7574 21.7003 24.8835C21.5568 25.1149 21.0027 25.2846 20.5375 25.3379C20.2815 25.372 20.0569 25.3818 19.9388 25.3851C19.8813 25.3866 19.8507 25.4178 19.8507 25.4753C19.8505 25.6356 19.9803 25.7653 20.1403 25.7559C20.2645 25.7485 20.4198 25.7358 20.5886 25.7136C21.0848 25.6397 21.7044 25.5196 22.0154 25.0983C22.2236 24.7783 22.2069 24.3208 22.1357 23.7485C21.9898 22.6697 21.5444 21.1961 21.2215 19.9866Z" fill="#BBBDBF"/>
<path d="M20.0524 25.1853C19.7886 25.2001 19.5831 25.3538 19.5928 25.5281C19.6029 25.7019 19.8246 25.831 20.088 25.8166C20.3518 25.8015 20.5568 25.6481 20.5472 25.4743C20.5372 25.2998 20.3155 25.1701 20.0524 25.1853Z" fill="#57585A"/>
<path d="M17.7517 16.5564C16.1797 16.7796 15.171 18.4246 15.2346 20.3037C15.2439 20.5791 15.4976 20.7714 15.7707 20.7349C15.7703 20.7349 15.7699 20.7346 15.7699 20.7342C15.6432 19.7903 15.8216 18.9002 16.2011 18.2359C16.5828 17.5695 17.1509 17.135 17.8175 17.0466C18.4839 16.958 19.1471 17.2293 19.6917 17.7726C20.1861 18.2673 20.5701 18.9863 20.7301 19.8253C20.7559 19.9602 20.8803 20.0561 21.0165 20.0382C21.1535 20.0201 21.2502 19.8938 21.2248 19.758C20.8594 17.8047 19.3964 16.3529 17.7517 16.5564Z" fill="#57585A"/>
<path d="M18.2406 10.0925C17.7798 10.6869 17.3804 11.4493 17.2271 12.2552C17.1666 12.5747 17.1429 12.9017 17.1429 13.2207C17.1442 14.3835 17.4358 16.4953 17.4917 16.8815C17.4967 16.9155 17.5279 16.9351 17.561 16.9255L17.9786 16.8046C17.9787 16.8045 17.9787 16.8044 17.9786 16.8044C17.9785 16.8044 17.9785 16.8044 17.9785 16.8044C17.9784 16.8013 17.9661 16.5351 17.8758 16.1075C17.7858 15.6775 17.6207 13.8151 17.6212 13.2207C17.6205 12.9252 17.643 12.6263 17.6965 12.3423C17.8301 11.632 18.1963 10.925 18.6189 10.3817C18.9419 9.96013 19.3106 9.64064 19.5925 9.48872C19.7078 9.42656 19.7875 9.29508 19.7554 9.16805C19.7238 9.04272 19.5952 8.96648 19.477 9.01881C19.0628 9.20223 18.6367 9.58932 18.2406 10.0925Z" fill="#57585A"/>
<path d="M29.2184 10.0925C28.8227 9.5893 28.3965 9.20246 27.9827 9.019C27.8644 8.96655 27.7356 9.04288 27.704 9.16838C27.672 9.29542 27.7515 9.42692 27.8668 9.48914C28.1484 9.64113 28.5171 9.96036 28.8398 10.3815C29.2624 10.9248 29.6289 11.6315 29.7627 12.3421C29.8145 12.6208 29.8373 12.9823 29.8373 13.3775C29.8381 14.6841 29.5906 16.3381 29.5025 16.8882C29.4848 16.9988 29.5496 17.0891 29.6599 17.1082L29.9424 17.1571C29.9427 17.1572 29.9431 17.1569 29.9431 17.1565C29.9433 17.1503 30.3144 15.0318 30.3156 13.3777C30.3153 12.9643 30.2928 12.58 30.2326 12.2552C30.0784 11.4488 29.6802 10.6869 29.2184 10.0925Z" fill="#57585A"/>
<path d="M29.2031 16.9429C28.2528 16.9429 27.4826 17.7067 27.4826 18.6492C27.4826 19.5912 28.2526 20.3551 29.2031 20.3551C30.1527 20.3551 30.9231 19.5912 30.9231 18.6492C30.9231 17.7067 30.1527 16.9429 29.2031 16.9429Z" fill="#929597"/>
<path d="M29.2031 17.8278C28.7456 17.8278 28.3738 18.1953 28.3738 18.6493C28.3738 19.1025 28.7456 19.471 29.2031 19.471C29.6598 19.471 30.0309 19.1025 30.0309 18.6493C30.0311 18.1953 29.6598 17.8278 29.2031 17.8278Z" fill="#D0D2D3"/>
<defs>
<filter id="filter0_d_250_399" x="-124" y="-87" width="285.351" height="285.351" filterUnits="userSpaceOnUse" color-interpolation-filters="sRGB">
<feFlood flood-opacity="0" result="BackgroundImageFix"/>
<feColorMatrix in="SourceAlpha" type="matrix" values="0 0 0 0 0 0 0 0 0 0 0 0 0 0 0 0 0 0 127 0" result="hardAlpha"/>
<feOffset dx="-5" dy="32"/>
<feGaussianBlur stdDeviation="59.5"/>
<feColorMatrix type="matrix" values="0 0 0 0 0.611816 0 0 0 0 0.611816 0 0 0 0 0.611816 0 0 0 0.5 0"/>
<feBlend mode="normal" in2="BackgroundImageFix" result="effect1_dropShadow_250_399"/>
<feBlend mode="normal" in="SourceGraphic" in2="effect1_dropShadow_250_399" result="shape"/>
</filter>
</defs>
</svg>
